{"accessors": [{"count": 4096, "name": "Node-Mesh_0_positions", "min": [-31.5, -31.5, 0], "max": [31.5, 31.5, 2], "bufferView": 0, "componentType": 5126, "byteOffset": 0, "type": "VEC3"}, {"count": 23814, "name": "Node-Mesh_0_indices", "min": [0], "max": [4095], "bufferView": 1, "componentType": 5123, "byteOffset": 0, "type": "SCALAR"}], "scene": 0, "scenes": [{"nodes": [0]}], "materials": [{"doubleSided": false, "alphaMode": "OPAQUE", "name": "default", "emissiveFactor": [0, 0, 0], "pbrMetallicRoughness": {"roughnessFactor": 1, "metallicFactor": 0, "baseColorFactor": [1.0, 0.0, 0.0, 1]}}], "meshes": [{"primitives": [{"indices": 1, "attributes": {"POSITION": 0}, "material": 0, "mode": 4}], "name": "Node-Mesh"}], "nodes": [{"mesh": 0, "name": "Node"}], "bufferViews": [{"byteLength": 49152, "target": 34962, "byteStride": 12, "buffer": 0, "byteOffset": 0, "name": "bufferView_0"}, {"buffer": 0, "byteLength": 47628, "target": 34963, "name": "bufferView_1", "byteOffset": 49152}], "buffers": [{"byteLength": 96780, "name": "cut_mosaic", "uri": "data:application/octet-stream;base64,"}], "asset": {"version": "2.0", "generator": "obj2gltf"}}
